<mxfile host="app.diagrams.net" modified="2024-03-09T17:43:07.641Z" agent="Mozilla/5.0 (Windows NT 10.0; Win64; x64) AppleWebKit/537.36 (KHTML, like Gecko) Chrome/121.0.0.0 Safari/537.36 OPR/107.0.0.0" version="24.0.4" etag="0EzhvdyAJPgvqCLrk0Da" type="github">
  <diagram name="PÃ¡gina-1" id="5c7cXVIxc6Zba3c8BK8-">
    <mxGraphModel>
      <root>
        <mxCell id="0" />
        <mxCell id="1" parent="0" />
      </root>
    </mxGraphModel>
  </diagram>
</mxfile>
